Coordinates
version=1
nRows=7
nColumns=42
inDegrees=yes

Units are S.I. units (second, meters, Newtons, ...)
If the header above contains a line with 'inDegrees', this indicates whether rotational values are in degrees (yes) or radians (no).

endheader
time	pelvis_tilt	pelvis_list	pelvis_rotation	pelvis_tx	pelvis_ty	pelvis_tz	hip_flexion_r	hip_adduction_r	hip_rotation_r	knee_angle_r	knee_adduction_r	knee_angle_r_beta	ankle_angle_r	subtalar_angle_r	mtp_angle_r	hip_flexion_l	hip_adduction_l	hip_rotation_l	knee_angle_l	knee_adduction_l	knee_angle_l_beta	ankle_angle_l	subtalar_angle_l	mtp_angle_l	lumbar_extension	lumbar_bending	lumbar_rotation	arm_flex_r	arm_add_r	arm_rot_r	elbow_flex_r	pro_sup_r	wrist_flex_r	wrist_dev_r	arm_flex_l	arm_add_l	arm_rot_l	elbow_flex_l	pro_sup_l	wrist_flex_l	wrist_dev_l
      1.65000000	     13.73967922	     -1.67163337	      0.47894630	     -0.17015257	      0.86650872	      0.12112259	     -7.15952790	      6.75700157	    -12.37235267	     17.39792909	     -2.11113567	      0.30365115	     19.29701076	     -0.17838858	     -7.50536194	      2.46493072	     -4.80135456	     -8.60284501	     62.32080298	     -5.29828782	      1.08770320	     11.10798040	    -18.73398638	     -7.50536194	    -28.13695523	      1.53246971	      2.92613391	      6.42459521	     -5.60213018	     -8.85740142	     32.68491713	     90.00000001	      0.00000000	      0.00000000	      6.14045511	     -7.91985040	     -0.79185995	     31.27936460	     90.00000001	      0.00000000	      0.00000000
      1.66000000	     13.69600175	     -1.69480268	      0.09105466	     -0.16035396	      0.86655644	      0.12194714	     -8.11470063	      6.75534437	    -12.09762963	     16.87729418	     -2.03468099	      0.29456435	     19.83639634	      0.45211934	     -7.50521125	      3.93741221	     -4.65136298	     -7.68879661	     61.27654968	     -4.32739447	      1.06947755	     11.75087241	    -18.70650751	     -7.50521125	    -28.16171937	      1.40051025	      3.35746604	      7.47747301	     -5.86549658	     -8.32276822	     33.31647855	     90.00000001	      0.00000000	      0.00000000	      5.18101557	     -7.76932636	     -1.31879346	     30.93479944	     90.00000001	      0.00000000	      0.00000000
      1.67000000	     13.66368232	     -1.77382185	     -0.27391837	     -0.15045422	      0.86643111	      0.12270164	     -9.06442174	      6.78999142	    -12.02139499	     16.40738022	     -1.97490768	      0.28636281	     20.29575627	      1.15022163	     -7.50502762	      5.29097951	     -4.57285890	     -6.55104755	     59.91228357	     -3.12558573	      1.04566661	     12.16442131	    -18.66958211	     -7.50502762	    -28.16724528	      1.33328885	      3.81857683	      8.45842367	     -6.18489361	     -7.62424149	     34.04211231	     90.00000001	      0.00000000	      0.00000000	      4.20273929	     -7.54636309	     -2.06537797	     30.65059971	     90.00000001	      0.00000000	      0.00000000
      1.68000000	     13.59471967	     -1.84028103	     -0.62860923	     -0.14050996	      0.86607829	      0.12335198	     -9.95509737	      6.80319565	    -12.06034005	     15.97435748	     -1.97047808	      0.27880513	     20.66987135	      1.78632089	     -7.50488546	      6.61073432	     -4.48028374	     -5.76527333	     58.22470240	     -2.20798745	      1.01621276	     12.53047632	    -18.61743377	     -7.50488546	    -28.12566018	      1.26667931	      4.16391313	      9.49805601	     -6.42865571	     -7.10575575	     34.81127230	     90.00000001	      0.00000000	      0.00000000	      3.18032879	     -7.39940824	     -2.64297223	     30.39812204	     90.00000001	      0.00000000	      0.00000000
      1.69000000	     13.59040541	     -1.96646597	     -0.96443905	     -0.13044675	      0.86562655	      0.12392273	    -10.94193595	      6.85215617	    -12.14712851	     15.51733816	     -1.92675252	      0.27082864	     21.11345641	      2.63651334	     -7.50472749	      7.71982022	     -4.46167580	     -4.74092536	     56.22049470	     -1.06493537	      0.98123274	     12.77004478	    -18.58212497	     -7.50472749	    -28.12167517	      1.28100778	      4.58694342	     10.44723046	     -6.72470826	     -6.47502716	     35.64456729	     90.00000001	      0.00000000	      0.00000000	      2.16543658	     -7.17817366	     -3.37798373	     30.19943474	     90.00000001	      0.00000000	      0.00000000
      1.70000000	     13.57344025	     -2.08589180	     -1.28901528	     -0.12032727	      0.86501346	      0.12440537	    -11.89624828	      6.87223570	    -12.34067825	     15.10445073	     -1.88356659	      0.26362240	     21.51172667	      3.47768116	     -7.50458589	      8.73665048	     -4.45015300	     -4.00008041	     53.91438306	     -0.12583564	      0.94098350	     12.94101147	    -18.56103615	     -7.50458589	    -28.11164976	      1.29926346	      4.91617837	     11.39244290	     -7.00066885	     -5.90267414	     36.49843941	     90.00000001	      0.00000000	      0.00000000	      1.14463165	     -6.96246076	     -4.06538979	     30.00615246	     90.00000001	      0.00000000	      0.00000000
      1.71000000	     13.58012031	     -2.23791277	     -1.59803209	     -0.11012523	      0.86424679	      0.12485903	    -12.86801133	      6.93070179	    -12.65305769	     14.71986275	     -1.90406394	      0.25691007	     21.95555938	      4.55748558	     -7.50441240	      9.61041618	     -4.49642451	     -3.33116043	     51.34347191	      0.76739868	      0.89611263	     13.02462128	    -18.51096639	     -7.50441240	    -28.10793256	      1.35714457	      5.27946597	     12.29019389	     -7.32210632	     -5.15112460	     37.46521966	     90.00000001	      0.00000000	      0.00000000	      0.16102449	     -6.71562415	     -5.00342856	     29.85146614	     90.00000001	      0.00000000	      0.00000000
